<svg xmlns="http://www.w3.org/2000/svg" width="404.488" height="363.983" viewBox="0 0 404.488 363.983">
    <defs>
        <clipPath id="clip-path">
            <path id="Trazado_5272" d="M177.22 447.51c-.53.25-4.38.39-9.29.47-10 .17-24.39.09-24.39.09s-.78 0-1.08-3.9 1.62-7 1.84-8.63c1-7.48-1.55-10.6-1.59-11.15s14-.86 14-.86l4.6-.31-1 6.58a7.255 7.255 0 0 0-.1 1.13A9.891 9.891 0 0 0 168 441h.21c.33-.31 6-2.93 8.32.69 1.27 1.97.69 5.82.69 5.82z" class="cls-1"/>
        </clipPath>
        <clipPath id="clip-path-2">
            <path id="Trazado_5276" d="M164.35 414.62c.47 2.51 1.64 3.22.88 4.4-.11.18-.22.39-.33.61-.59 1.22-1.22 2.94-3.54 3.59-2.73.77-15.8 1.48-18.62 1.13s-4.42-3-4.58-5.24 1.06-3.64.87-6.15-2.15-3.24-2.28-4.91 1.49-4.1 1.47-5.77c0-3.52.06.32.76-19.69.39-11.41 3.15-13.89 0-26.83-1.14-4.67-13.38-89.22-13.38-89.22l37.75 2.26s.6 14.4 1.28 31.41c.86 21.64 1.85 47.5 1.88 53.32.06 11.82-1 28.38-1.89 43.08-.37 6.27-1 10.59 0 13a2.253 2.253 0 0 1 .21.8c.17 1.59-.96 1.7-.48 4.21z" class="cls-1"/>
        </clipPath>
        <clipPath id="clip-path-3">
            <path id="Trazado_5291" d="M126.77 423.27s-14.14.29-14.19.85 2 3.67-.33 11.14c-.5 1.63-3 4.72-3.32 8.61s.41 3.89.41 3.89 32 .18 33.77-.55c0 0 1.24-3.84.33-5.75-1.8-3.79-8.41-.73-8.2-.69h-.21c-4.93-1.09-7.41-6-5.73-11.2l2.13-6.57z" class="cls-1"/>
        </clipPath>
        <clipPath id="clip-path-4">
            <path id="Trazado_5295" d="M160 268.8l-37.36-2.26s-2.29 84.41-2 89.07c.93 12.92-2.25 15.39-4.61 26.79-4.14 20-3.58 16.14-4.14 19.65-.27 1.67-2.31 4.1-2.47 5.77s1.68 2.4 1.44 4.9-1.72 3.92-1.93 6.14.92 4.88 3.68 5.23 16-.36 18.82-1.13 3.63-3 4.59-4.19-.08-1.89-.13-4.4 1.08-2.58 1.23-4.22a2.139 2.139 0 0 0-.07-.8c-.61-2.39.77-6.7 2.21-13 3.4-14.67 7.33-31.21 9.29-43 1-5.88 4.51-32.22 7.39-54 0 0 2.76-4.45 4.16-13.07" class="cls-1"/>
        </clipPath>
        <clipPath id="clip-path-5">
            <path id="Trazado_5309" d="M154.33 194.11l-4.1-1.43c2.78 9.55.37 20.4-6.66 16.11s-9.82-16.62-11.92-22c-1.1-.34-5.57-.5-7.89 1.28 2.42 4.43 9 13.23 8.23 20.38-.88 8-7.17 15.1-18.92 7.06 1.6 12.12 6.68 20.86 7.66 25 3.58 15 1.19 17.05-.48 31.85 17 8.67 37.57 4.36 46.58 1.72-2.75-15.08-1.54-53.08-12.5-79.97z" class="cls-1"/>
        </clipPath>
        <linearGradient id="linear-gradient" x1=".612" x2=".184" y1=".058" y2="1.749" gradientUnits="objectBoundingBox">
            <stop offset=".004" stop-color="#1195ff"/>
            <stop offset="1" stop-color="#1195ff"/>
        </linearGradient>
        <linearGradient id="linear-gradient-2" x1=".746" x2=".265" y1="-.474" y2="1.43" gradientUnits="objectBoundingBox">
            <stop offset=".004" stop-color="#1195ff"/>
            <stop offset="1" stop-color="#00c4ff"/>
        </linearGradient>
        <style>
            .cls-1,.cls-17{fill:none}.cls-2{fill:#1195ff}.cls-16,.cls-4{fill:#fff}.cls-5{fill:#333232}.cls-8{isolation:isolate;opacity:.3}.cls-16,.cls-17{stroke-miterlimit:10;stroke:#000}
        </style>
    </defs>
    <g id="Grupo_1483" transform="translate(-5.21 -84.777)">
        <g id="freepik--background-simple--inject-2">
            <path id="Trazado_5227" d="M359.683 136.26c-22.71-34.47-65.88-54.94-107.6-51s-80.12 32-95.73 70.11c-8 19.45-10.5 41.27-22.42 58.67-12.22 17.84-32.59 28.48-52.57 37.37s-41 17.08-56.73 32-25 38.92-15.73 58.36c9.48 19.76 33.42 27.66 50.71 41.46s28.28 34.1 45.93 47.44c16.31 12.33 37.34 17.75 57.96 17.71s40.9-5.24 60.16-12.43c59.73-22.29 116-63.77 139.83-121.83 44.107-107.52-3.81-177.86-3.81-177.86z" class="cls-2"/>
            <g id="Grupo_1441" opacity="0.7">
                <path id="Trazado_5228" d="M359.683 136.26c-22.71-34.47-65.88-54.94-107.6-51s-80.12 32-95.73 70.11c-8 19.45-10.5 41.27-22.42 58.67-12.22 17.84-32.59 28.48-52.57 37.37s-41 17.08-56.73 32-25 38.92-15.73 58.36c9.48 19.76 33.42 27.66 50.71 41.46s28.28 34.1 45.93 47.44c16.31 12.33 37.34 17.75 57.96 17.71s40.9-5.24 60.16-12.43c59.73-22.29 116-63.77 139.83-121.83 44.107-107.52-3.81-177.86-3.81-177.86z" class="cls-4"/>
            </g>
        </g>
        <g id="freepik--Plant--inject-2">
            <path id="Trazado_5229" d="M310.7 406.79s14.5-.08 30.58-22.48c14.05-19.59-12.62-80.24-27.57-94.19s-44.05 62.24-40.67 81.54c4.811 27.5 25.541 34.43 37.66 35.13z" class="cls-2"/>
            <path id="Trazado_5230" d="M314.681 448.34h-8.308l-.089-.388c-.065-.279-.027-7.878.164-40.26.077-13.028.167-28.309.252-44.41l-17.852-17.122h1.036a8.964 8.964 0 0 0-1.377-1.558l.609-.793 17.67 12.24c.148-27.948.285-50.3.285-50.3v-.174l2.627-3.287.943 30.778 15.017-10.81.637.767a9.171 9.171 0 0 0-1.383 1.575h.929l-.8.858-14.206 14.127 1.3 42.584 23.6-16.981.65.754-.121.122a8.744 8.744 0 0 0-2.077 2.549h1.252l-23.02 22.889zm-7.424-1h6.383l-2.24-56.24 21.955-21.827a.775.775 0 0 1-.126-.208 1.137 1.137 0 0 1 .061-.889l-22.091 15.9-1.377-44.9 14.063-13.986a.574.574 0 0 1-.034-.072.713.713 0 0 1-.062-.29L309.7 334.975l-.918-29.941-.713.893c-.014 2.154-.147 24.123-.289 51.076l-.005.948-16.8-11.637a.755.755 0 0 1-.036.344.819.819 0 0 1-.038.086l16.8 16.114v.215c-.085 16.18-.176 31.538-.253 44.625-.124 21.102-.217 36.802-.191 39.642z" class="cls-5"/>
            <path id="Trazado_5231" d="M377.041 425.2s17.64-1.27 26.44-18c9.5-18.09-13.67-61-25.51-64.18-13-3.51-33.52 30.78-29.32 57.42 2.88 18.18 20.24 24.3 28.39 24.76z" class="cls-2"/>
            <path id="Trazado_5232" d="M373.12 447.886l.666-28.027-15.1-16.421.882-.006a8.818 8.818 0 0 0-1.258-1.573l.667-.742 14.983 11.792.612-25.739-10.122-11.006.69-.008a7.342 7.342 0 0 0-.73-.865l.665-.744 9.644 7.564.581-24.211 2.477 2.82v.183s.31 17.784.683 40.246l11.506-9.138.674.735a7.772 7.772 0 0 0-.933 1.182l.806-.009-.757.85-11.169 12.227v1.086c.053 3.835.121 7.779.192 11.757l.129 7.73c.1 6.689.207 13.365.319 19.745l.009.5zm-12.537-43.865L374.8 419.48l-.652 27.394 4.079-.048c-.108-6.227-.209-12.729-.31-19.243l-.129-7.729c-.07-3.978-.139-7.924-.192-11.767v-1.482l11.055-12.1a.637.637 0 0 1-.044-.126l-11.1 8.818-.016-1.014c-.358-21.605-.663-39.112-.7-41.075l-.543-.621-.53 23.675-9.143-7.172 9.017 9.806-.668 28.14-14.257-11.22a.713.713 0 0 1-.052.257c-.015.01-.022.027-.032.048z" class="cls-5"/>
            <path id="Trazado_5233" d="M355.071 438.35c-1.64-1.32-4.59-1.29-7.18-1.18.19-1.65.88-3.28 1.08-4.94a4.642 4.642 0 0 0-1.81-4.58c-2.84-2-7.84-1.22-11.76-.08.54-3.88-3.59-7.66-9.12-8.26s-11.68 2.1-13.3 5.89c-2.24-2.14-6.71-3-10.44-2s-6.38 3.79-6.19 6.48c-2.86-.19-6.05-.32-8.42.91-3.48 1.82-3.24 5.5-5.92 7.88a4.871 4.871 0 0 0-4.7 1.72c-.91 1.19-1.07 2.55-1.62 3.83-1.12 2.56-4.84 2.88-8.39 4l88.84.74c1.93-.62 3.58-1.94 3.5-3.37s-2.47-2.59-4.32-1.88c.64.03 1.66-3.64-.25-5.16z" class="cls-2"/>
            <path id="Trazado_5234" d="M395.011 442.24c-1-.8-2.82-.79-4.4-.72.11-1 .53-2 .66-3a2.84 2.84 0 0 0-1.11-2.81c-1.74-1.22-4.81-.75-7.21-.05.33-2.38-2.2-4.7-5.59-5.06s-7.16 1.28-8.15 3.6c-1.37-1.31-4.12-1.83-6.4-1.21s-3.91 2.32-3.79 4c-1.76-.12-3.71-.21-5.16.55-2.14 1.12-2 3.37-3.63 4.83a3 3 0 0 0-2.89 1.06 10.163 10.163 0 0 0-1 2.34c-.68 1.57-3 1.76-5.14 2.45l54.45.45c1.18-.38 2.19-1.19 2.15-2.06s-1.52-1.59-2.65-1.15c.4-.03 1.03-2.28-.14-3.22z" class="cls-2"/>
        </g>
        <g id="freepik--Clouds--inject-2">
            <path id="Trazado_5235" d="M409.2 198.55H298.928a.5.5 0 0 1-.5-.5A14.425 14.425 0 0 1 312.8 183.6h.042a14.412 14.412 0 0 1 8.863 3.047 20.5 20.5 0 0 1 4.7-7.162.5.5 0 0 1 .7.712 19.469 19.469 0 0 0-4.7 7.447.5.5 0 0 1-.8.215 13.412 13.412 0 0 0-8.764-3.259h-.041a13.426 13.426 0 0 0-13.362 12.951h109.13a4.171 4.171 0 0 0-4-2.93h-.041a4.044 4.044 0 0 0-2.379.766.5.5 0 0 1-.792-.4 15.089 15.089 0 0 0-30.082-1.529.5.5 0 0 1-.847.3 6.7 6.7 0 0 0-.553-.486 6.459 6.459 0 0 0-9.055 1.107.5.5 0 0 1-.893-.308v-.12a19.329 19.329 0 0 0-25.705-18.238.5.5 0 1 1-.33-.944 20.332 20.332 0 0 1 27 18.065 7.463 7.463 0 0 1 9.515-.411 16.09 16.09 0 0 1 31.913 1.7 5.3 5.3 0 0 1 2.237-.5h.013a5.168 5.168 0 0 1 5.117 4.349.5.5 0 0 1-.494.581z" class="cls-5"/>
            <g id="Grupo_1442">
                <path id="Trazado_5236" d="M46.149 126.87h110.27a13.91 13.91 0 0 0-23-10.57 19.81 19.81 0 0 0-38.53 6.47v.12a6.949 6.949 0 0 0-9.756-1.191 6.833 6.833 0 0 0-.594.521 15.59 15.59 0 0 0-31.08 1.58 4.569 4.569 0 0 0-2.7-.86 4.69 4.69 0 0 0-4.61 3.93z" class="cls-4"/>
                <path id="Trazado_5237" d="M156.917 127.37H45.56l.1-.581a5.175 5.175 0 0 1 5.1-4.349 5.326 5.326 0 0 1 2.234.5 16.09 16.09 0 0 1 31.914-1.7 7.452 7.452 0 0 1 9.515.409 20.31 20.31 0 0 1 39.226-6.186 14.419 14.419 0 0 1 8.864-3.047h.042a14.41 14.41 0 0 1 14.367 14.453zm-110.137-1h109.131a13.427 13.427 0 0 0-13.362-12.951h-.039a13.415 13.415 0 0 0-8.764 3.259l-.559.482-.241-.7a19.31 19.31 0 0 0-37.557 6.308v1.57L94.5 123.2a6.444 6.444 0 0 0-9.605-.621l-.732.72-.116-1.021a15.09 15.09 0 0 0-30.083 1.529l-.011.963-.781-.562a4.23 4.23 0 0 0-2.4-.766 4.178 4.178 0 0 0-3.992 2.928z" class="cls-5"/>
            </g>
        </g>
        <g id="freepik--Buildings--inject-2">
            <path id="Rectángulo_834" d="M0 0H1V21.652H0z" class="cls-2" transform="rotate(-9.089 1137.557 -1096.63)"/>
            <path id="Rectángulo_835" d="M0 0H1V22.346H0z" class="cls-2" transform="rotate(-39.56 328.836 -156.03)"/>
            <path id="Rectángulo_836" d="M0 0H1V14.302H0z" class="cls-2" transform="rotate(-68.637 224.405 -32.2)"/>
            <path id="Trazado_5238" d="M105.25 225.76a.5.5 0 0 1-.5-.5v-16.47a.5.5 0 0 1 1 0v16.47a.5.5 0 0 1-.5.5z" class="cls-5"/>
            <g id="Grupo_1443">
                <path id="Rectángulo_837" d="M0 0H38.78V12.15H0z" class="cls-4" transform="translate(66.47 213.11)"/>
                <path id="Trazado_5239" d="M105.25 225.76H66.47a.5.5 0 0 1-.5-.5v-12.15a.5.5 0 0 1 .5-.5h38.78a.5.5 0 0 1 .5.5v12.15a.5.5 0 0 1-.5.5zm-38.28-1h37.78v-11.15H66.97z" class="cls-5"/>
            </g>
            <path id="Trazado_5240" d="M66.47 225.76a.5.5 0 0 1-.5-.5v-16.47a.5.5 0 0 1 1 0v16.47a.5.5 0 0 1-.5.5z" class="cls-5"/>
            <g id="Grupo_1444">
                <path id="Rectángulo_838" d="M0 0H78.38V136.48H0z" class="cls-4" transform="translate(202.93 311.6)"/>
                <path id="Trazado_5241" d="M281.31 448.58h-78.38a.5.5 0 0 1-.5-.5V311.6a.5.5 0 0 1 .5-.5h78.38a.5.5 0 0 1 .5.5v136.48a.5.5 0 0 1-.5.5zm-77.88-1h77.38V312.1h-77.38z" class="cls-5"/>
            </g>
            <g id="Grupo_1445">
                <path id="Rectángulo_839" d="M0 0H78.38V187.08H0z" class="cls-4" transform="translate(124.8 261)"/>
                <path id="Trazado_5242" d="M203.18 448.58H124.8a.5.5 0 0 1-.5-.5V261a.5.5 0 0 1 .5-.5h78.38a.5.5 0 0 1 .5.5v187.08a.5.5 0 0 1-.5.5zm-77.88-1h77.38V261.5H125.3z" class="cls-5"/>
            </g>
            <g id="Grupo_1446">
                <path id="Rectángulo_840" d="M0 0H78.38V223.16H0z" class="cls-4" transform="translate(46.06 224.93)"/>
                <path id="Trazado_5243" d="M124.44 448.59H46.06a.5.5 0 0 1-.5-.5V224.93a.5.5 0 0 1 .5-.5h78.38a.5.5 0 0 1 .5.5v223.16a.5.5 0 0 1-.5.5zm-77.88-1h77.38V225.43H46.56z" class="cls-5"/>
            </g>
            <path id="Trazado_5244" d="M109.85 440.13a.5.5 0 0 1-.5-.5V239a.5.5 0 0 1 1 0v200.63a.5.5 0 0 1-.5.5z" class="cls-2"/>
            <path id="Trazado_5245" d="M92.71 440.13a.5.5 0 0 1-.5-.5V239a.5.5 0 0 1 1 0v200.63a.5.5 0 0 1-.5.5z" class="cls-2"/>
            <path id="Trazado_5246" d="M75.57 440.13a.5.5 0 0 1-.5-.5V239a.5.5 0 0 1 1 0v200.63a.5.5 0 0 1-.5.5z" class="cls-2"/>
            <path id="Trazado_5247" d="M58.44 440.13a.5.5 0 0 1-.5-.5V239a.5.5 0 0 1 1 0v200.63a.5.5 0 0 1-.5.5z" class="cls-2"/>
            <path id="Trazado_5248" d="M190.17 439.53a.5.5 0 0 1-.5-.5V270.66a.5.5 0 0 1 1 0v168.37a.5.5 0 0 1-.5.5z" class="cls-2"/>
            <path id="Trazado_5249" d="M173.03 439.53a.5.5 0 0 1-.5-.5V270.66a.5.5 0 0 1 1 0v168.37a.5.5 0 0 1-.5.5z" class="cls-2"/>
            <path id="Trazado_5250" d="M155.88 439.53a.5.5 0 0 1-.5-.5V270.66a.5.5 0 0 1 1 0v168.37a.5.5 0 0 1-.5.5z" class="cls-2"/>
            <path id="Trazado_5251" d="M138.75 439.53a.5.5 0 0 1-.5-.5V270.66a.5.5 0 0 1 1 0v168.37a.5.5 0 0 1-.5.5z" class="cls-2"/>
            <path id="Trazado_5252" d="M190.17 271.16h-51.42a.5.5 0 0 1 0-1h51.42a.5.5 0 0 1 0 1z" class="cls-2"/>
            <path id="Trazado_5253" d="M190.17 289.83h-51.42a.5.5 0 0 1 0-1h51.42a.5.5 0 0 1 0 1z" class="cls-2"/>
            <path id="Trazado_5254" d="M190.17 308.49h-51.42a.5.5 0 0 1 0-1h51.42a.5.5 0 0 1 0 1z" class="cls-2"/>
            <path id="Trazado_5255" d="M190.17 327.16h-51.42a.5.5 0 0 1 0-1h51.42a.5.5 0 0 1 0 1z" class="cls-2"/>
            <path id="Trazado_5256" d="M190.17 345.82h-51.42a.5.5 0 0 1 0-1h51.42a.5.5 0 0 1 0 1z" class="cls-2"/>
            <path id="Trazado_5257" d="M190.17 364.5h-51.42a.5.5 0 0 1 0-1h51.42a.5.5 0 0 1 0 1z" class="cls-2"/>
            <path id="Trazado_5258" d="M190.17 383.17h-51.42a.5.5 0 0 1 0-1h51.42a.5.5 0 0 1 0 1z" class="cls-2"/>
            <path id="Trazado_5259" d="M190.17 401.83h-51.42a.5.5 0 0 1 0-1h51.42a.5.5 0 0 1 0 1z" class="cls-2"/>
            <path id="Trazado_5260" d="M190.17 420.5h-51.42a.5.5 0 0 1 0-1h51.42a.5.5 0 0 1 0 1z" class="cls-2"/>
            <path id="Trazado_5261" d="M190.17 439.17h-51.42a.5.5 0 0 1 0-1h51.42a.5.5 0 0 1 0 1z" class="cls-2"/>
            <path id="Trazado_5262" d="M273.64 323.36h-59.25a.5.5 0 0 1 0-1h59.25a.5.5 0 0 1 0 1z" class="cls-2"/>
            <path id="Trazado_5263" d="M273.64 342.03h-59.25a.5.5 0 0 1 0-1h59.25a.5.5 0 0 1 0 1z" class="cls-2"/>
            <path id="Trazado_5264" d="M273.64 360.69h-59.25a.5.5 0 1 1 0-1h59.25a.5.5 0 0 1 0 1z" class="cls-2"/>
            <path id="Trazado_5265" d="M273.64 379.36h-59.25a.5.5 0 0 1 0-1h59.25a.5.5 0 0 1 0 1z" class="cls-2"/>
            <path id="Trazado_5266" d="M273.64 398.03h-59.25a.5.5 0 0 1 0-1h59.25a.5.5 0 0 1 0 1z" class="cls-2"/>
            <path id="Trazado_5267" d="M273.64 416.7h-59.25a.5.5 0 1 1 0-1h59.25a.5.5 0 0 1 0 1z" class="cls-2"/>
            <path id="Trazado_5268" d="M273.64 435.36h-59.25a.5.5 0 0 1 0-1h59.25a.5.5 0 0 1 0 1z" class="cls-2"/>
        </g>
        <g id="freepik--Character--inject-2">
            <path id="Trazado_5269" d="M177.22 447.51c-.53.25-4.38.39-9.29.47-10 .17-24.39.09-24.39.09s-.78 0-1.08-3.9 1.62-7 1.84-8.63c1-7.48-1.55-10.6-1.59-11.15s14-.86 14-.86l4.6-.31-1 6.58a7.255 7.255 0 0 0-.1 1.13A9.891 9.891 0 0 0 168 441h.21c.33-.31 6-2.93 8.32.69 1.27 1.97.69 5.82.69 5.82z" class="cls-5"/>
            <g id="Grupo_1449">
                <g id="Grupo_1448" clip-path="url(#clip-path)">
                    <g id="Grupo_1447">
                        <path id="Trazado_5270" d="M177.22 447.51c-.53.25-4.38.39-9.29.47-10 .17-24.39.09-24.39.09s-.78 0-1.08-3.9 1.62-7 1.84-8.63c1-7.48-1.55-10.6-1.59-11.15s14-.86 14-.86l4.6-.31-1 6.58a7.255 7.255 0 0 0-.1 1.13A9.891 9.891 0 0 0 168 441h.21c.33-.31 6-2.93 8.32.69 1.27 1.97.69 5.82.69 5.82z" style="isolation:isolate" fill="#fff" opacity="0.2"/>
                        <path id="Trazado_5271" d="M167.93 448c-10 .17-24.39.09-24.39.09s-.78 0-1.08-3.9 1.62-7 1.84-8.63c1-7.48-1.55-10.6-1.59-11.15s14-.86 14-.86l4.6-.31-1 6.58a7.255 7.255 0 0 0-.1 1.13c-3.17 2.62-5.69 4.73-5.69 4.73s12.85 4.24 13.41 12.32z" class="cls-8"/>
                    </g>
                </g>
            </g>
            <path id="Trazado_5273" d="M151.528 448.589c-4.566 0-7.922-.019-7.991-.019-.822 0-1.353-1.467-1.576-4.362a16.079 16.079 0 0 1 1.27-6.862 10.733 10.733 0 0 0 .573-1.872c.8-5.974-.733-9.118-1.31-10.3a2.267 2.267 0 0 1-.283-.747.59.59 0 0 1 .142-.4c.171-.188.626-.688 14.346-.991l4.577-.309a.49.49 0 0 1 .4.16.5.5 0 0 1 .126.414l-1 6.58a6.84 6.84 0 0 0-.094 1.06 9.376 9.376 0 0 0 7.344 9.565h.006a10.111 10.111 0 0 1 5.473-1.156 4.52 4.52 0 0 1 3.418 2.077c1.356 2.1.788 6 .764 6.163a.5.5 0 0 1-.281.378c-.26.122-.8.377-9.5.518-5.132.081-11.473.103-16.404.103zm-7.806-.974zm-.041-.044c1.517.007 14.885.068 24.241-.091a86.188 86.188 0 0 0 8.843-.368c.1-.936.294-3.677-.656-5.151a3.5 3.5 0 0 0-2.415-1.581 9.005 9.005 0 0 0-5.161 1 .441.441 0 0 1-.323.119H168a.472.472 0 0 1-.106-.012 10.37 10.37 0 0 1-8.184-10.579 7.75 7.75 0 0 1 .107-1.191l.9-5.957-3.978.268c-5.557.123-11.714.384-13.376.656l.025.05c.613 1.258 2.241 4.6 1.4 10.871a11.255 11.255 0 0 1-.623 2.081 15.215 15.215 0 0 0-1.214 6.445c.205 2.569.601 3.269.73 3.44zm-.141 0zm33.68-.06z" class="cls-5"/>
            <path id="Trazado_5274" d="M164.35 414.62c.47 2.51 1.64 3.22.88 4.4-.11.18-.22.39-.33.61-.59 1.22-1.22 2.94-3.54 3.59-2.73.77-15.8 1.48-18.62 1.13s-4.42-3-4.58-5.24 1.06-3.64.87-6.15-2.15-3.24-2.28-4.91 1.49-4.1 1.47-5.77c0-3.52.06.32.76-19.69.39-11.41 3.15-13.89 0-26.83-1.14-4.67-13.38-89.22-13.38-89.22l37.75 2.26s.6 14.4 1.28 31.41c.86 21.64 1.85 47.5 1.88 53.32.06 11.82-1 28.38-1.89 43.08-.37 6.27-1 10.59 0 13a2.253 2.253 0 0 1 .21.8c.17 1.59-.96 1.7-.48 4.21z" class="cls-2"/>
            <g id="Grupo_1452">
                <g id="Grupo_1451" clip-path="url(#clip-path-2)">
                    <g id="Grupo_1450">
                        <path id="Trazado_5275" d="M164.9 419.63c-.59 1.22-1.22 2.94-3.54 3.59-2.73.77-15.8 1.48-18.62 1.13s-4.42-3-4.58-5.24 1.06-3.64.87-6.15-2.15-3.24-2.28-4.91 1.49-4.1 1.47-5.77c0-3.52.06.32.76-19.69.39-11.41 3.15-13.89 0-26.83-1.14-4.67-13.38-89.22-13.38-89.22l37.75 2.26s.6 14.4 1.28 31.41c-4.55 18.92-9.83 39.74-11.81 43.24l3.12 5.45s-7.46 17.31-7.46 19.4 2.52 21.64 3.39 25.7-3.39 1.17-3.39 4.59c0 3.15-.34 18.48 16.42 21.04z" class="cls-8"/>
                    </g>
                </g>
            </g>
            <path id="Trazado_5277" d="M145.208 424.942a23.715 23.715 0 0 1-2.529-.1c-3.022-.374-4.841-3.216-5.017-5.7a8.576 8.576 0 0 1 .438-3.054 8.4 8.4 0 0 0 .431-3.094 4.815 4.815 0 0 0-1.223-2.719 4.136 4.136 0 0 1-1.057-2.19 8.191 8.191 0 0 1 .77-3.221 8.252 8.252 0 0 0 .7-2.582c0-1.482.011-1.691.073-2.848.091-1.681.278-5.177.687-16.866a82.253 82.253 0 0 1 .864-9.1c.694-5.03 1.242-9-.85-17.6-1.133-4.64-12.889-85.814-13.389-89.267a.5.5 0 0 1 .127-.41.474.474 0 0 1 .4-.16l37.75 2.26a.5.5 0 0 1 .47.478s.6 14.4 1.279 31.411c1.225 30.789 1.857 48.734 1.881 53.337.056 11.075-.886 26.574-1.717 40.248l-.174 2.866c-.078 1.331-.169 2.575-.253 3.731-.3 4.213-.527 7.257.216 9.047a2.7 2.7 0 0 1 .247.954 3.331 3.331 0 0 1-.3 1.742 3.611 3.611 0 0 0-.191 2.411 9.959 9.959 0 0 0 .714 2.222 2.414 2.414 0 0 1 .094 2.54c-.1.159-.2.356-.3.564l-.141.3a5.6 5.6 0 0 1-3.711 3.55c-2.329.665-11.429 1.25-16.289 1.25zm-19.025-157.866c1.108 7.641 12.212 84.179 13.283 88.566 2.137 8.778 1.577 12.834.868 17.968a81.761 81.761 0 0 0-.855 9c-.409 11.7-.6 15.2-.687 16.884-.062 1.161-.072 1.339-.072 2.789a8.862 8.862 0 0 1-.763 2.942 7.6 7.6 0 0 0-.708 2.789 3.25 3.25 0 0 0 .854 1.663 5.762 5.762 0 0 1 1.425 3.248 9.312 9.312 0 0 1-.465 3.437 7.682 7.682 0 0 0-.4 2.715 5.093 5.093 0 0 0 4.143 4.78c2.725.338 15.7-.346 18.422-1.116a4.634 4.634 0 0 0 3.077-3.012l.149-.314c.119-.238.237-.461.353-.652.3-.466.2-.759-.168-1.618a10.939 10.939 0 0 1-.776-2.428 4.6 4.6 0 0 1 .243-2.968 2.369 2.369 0 0 0 .231-1.283 1.8 1.8 0 0 0-.165-.639c-.843-2.031-.615-5.174-.3-9.524.084-1.153.173-2.392.252-3.719l.174-2.866c.83-13.659 1.771-29.142 1.715-40.182-.024-4.593-.656-22.526-1.88-53.3-.609-15.245-1.154-28.394-1.261-30.958z" class="cls-5"/>
            <path id="Trazado_5278" d="M153.872 300a6.045 6.045 0 0 1-1.082-.1.5.5 0 0 1 .18-.984c3.664.678 8.119-3.128 8.163-3.167a.5.5 0 0 1 .654.757c-.18.157-4.087 3.494-7.915 3.494z" class="cls-5"/>
            <path id="Trazado_5279" d="M161 304.19a.518.518 0 0 1-.117-.013c-1.338-.323-8.06-2.018-9.008-3.7a.5.5 0 1 1 .871-.491c.54.958 5.22 2.459 8.371 3.219a.5.5 0 0 1-.117.986z" class="cls-5"/>
            <path id="Trazado_5280" d="M159.89 353.48a.491.491 0 0 1-.247-.065c-4.781-2.718-8.935-13.46-9.11-13.916a.5.5 0 0 1 .934-.357c.041.108 4.2 10.863 8.67 13.4a.5.5 0 0 1-.247.934z" class="cls-5"/>
            <path id="Trazado_5281" d="M157.39 417.869c-6.579 0-12.6-3.78-13.06-4.8a.587.587 0 0 1 .1-.68c.3-.3.775-.235 1.875.265 4.422 2.006 13.553-.775 13.646-.8a.5.5 0 0 1 .295.955c-.358.111-8.157 2.486-13.119 1.189a21.59 21.59 0 0 0 11.346 2.834.5.5 0 1 1 .069 1c-.383.023-.769.037-1.152.037z" class="cls-5"/>
            <path id="Trazado_5282" d="M154.569 398.03a.5.5 0 0 1-.3-.1c-7.737-5.9-7.9-34.262-7.907-35.467a.5.5 0 0 1 .5-.5.5.5 0 0 1 .5.5c0 .29.166 29.069 7.513 34.674a.5.5 0 0 1-.3.9z" class="cls-5"/>
            <path id="Trazado_5283" d="M154.7 428.55a.5.5 0 0 1-.185-.965 17.342 17.342 0 0 1 5.827-1.225.486.486 0 0 1 .517.483.5.5 0 0 1-.482.517 16.3 16.3 0 0 0-5.492 1.155.519.519 0 0 1-.185.035z" class="cls-5"/>
            <path id="Trazado_5284" d="M154.87 432.34a.5.5 0 0 1-.173-.969 39.77 39.77 0 0 1 4.743-1.421.5.5 0 0 1 .2.981 39.373 39.373 0 0 0-4.6 1.378.5.5 0 0 1-.17.031z" class="cls-5"/>
            <path id="Trazado_5285" d="M155.38 435.97a.5.5 0 0 1-.144-.979l4.37-1.309a.5.5 0 1 1 .288.957l-4.371 1.309a.473.473 0 0 1-.143.022z" class="cls-5"/>
            <path id="Trazado_5286" d="M157.51 438.94a.5.5 0 0 1-.183-.965l3.59-1.411a.5.5 0 0 1 .366.932l-3.591 1.41a.485.485 0 0 1-.182.034z" class="cls-5"/>
            <path id="Trazado_5287" d="M161.581 441.49a.5.5 0 0 1-.306-.9l2.09-1.611a.5.5 0 0 1 .61.793l-2.09 1.611a.5.5 0 0 1-.304.107z" class="cls-5"/>
            <path id="Trazado_5288" d="M164.63 442.85a.482.482 0 0 1-.112-.013.5.5 0 0 1-.375-.6c.047-.208-.665-.555-1.355-.892a15.6 15.6 0 0 1-4.738-3.268c-3.27-3.4-2.964-13.237-2.949-13.654a.523.523 0 0 1 .517-.483.5.5 0 0 1 .482.518c0 .1-.307 9.826 2.671 12.926a14.5 14.5 0 0 0 4.456 3.062c1.182.577 2.116 1.033 1.89 2.016a.5.5 0 0 1-.487.388z" class="cls-5"/>
            <path id="Trazado_5289" d="M126.77 423.27s-14.14.29-14.19.85 2 3.67-.33 11.14c-.5 1.63-3 4.72-3.32 8.61s.41 3.89.41 3.89 32 .18 33.77-.55c0 0 1.24-3.84.33-5.75-1.8-3.79-8.41-.73-8.2-.69h-.21c-4.93-1.09-7.41-6-5.73-11.2l2.13-6.57z" class="cls-5"/>
            <g id="Grupo_1455">
                <g id="Grupo_1454" clip-path="url(#clip-path-3)">
                    <g id="Grupo_1453">
                        <path id="Trazado_5290" d="M126.77 423.27s-14.14.29-14.19.85 2 3.67-.33 11.14c-.5 1.63-3 4.72-3.32 8.61s.41 3.89.41 3.89 32 .18 33.77-.55c0 0 1.24-3.84.33-5.75-1.8-3.79-8.41-.73-8.2-.69h-.21c-4.93-1.09-7.41-6-5.73-11.2l2.13-6.57z" style="isolation:isolate" fill="#fff" opacity="0.25"/>
                    </g>
                </g>
            </g>
            <path id="Trazado_5292" d="M117.906 448.282c-4.229 0-7.573-.016-8.569-.022a.682.682 0 0 1-.491-.239c-.173-.188-.7-.757-.414-4.192a17.44 17.44 0 0 1 2.436-6.843 12.5 12.5 0 0 0 .9-1.873c1.862-5.969.853-9.1.473-10.275a2.046 2.046 0 0 1-.163-.763c.048-.54.088-1.006 14.668-1.305l4.651-.269a.493.493 0 0 1 .425.193.5.5 0 0 1 .08.46l-2.131 6.571a8.709 8.709 0 0 0 .528 7.076 7.283 7.283 0 0 0 4.782 3.469h.033a9.376 9.376 0 0 1 2.514-.91c3.107-.741 5.329-.072 6.26 1.885.983 2.066-.253 5.954-.307 6.118a.5.5 0 0 1-.284.309c-1.258.521-15.664.61-25.391.61zm-8.368-1.021c12.334.066 30.717 0 33.174-.46.346-1.189.9-3.814.277-5.126a2.616 2.616 0 0 0-1.757-1.446c-2.086-.588-5.075.577-5.637.893a.5.5 0 0 1-.355.148h-.21a.5.5 0 0 1-.108-.012 8.274 8.274 0 0 1-5.486-3.96 9.685 9.685 0 0 1-.612-7.881l1.9-5.876-3.93.228h-.019c-5.707.117-12.063.38-13.616.661l.032.1c.407 1.26 1.488 4.607-.468 10.877a12.905 12.905 0 0 1-.981 2.054 16.607 16.607 0 0 0-2.318 6.449 8.249 8.249 0 0 0 .114 3.351zm-.2 0zm17.43-23.99z" class="cls-5"/>
            <path id="Trazado_5293" d="M160 268.8l-37.36-2.26s-2.29 84.41-2 89.07c.93 12.92-2.25 15.39-4.61 26.79-4.14 20-3.58 16.14-4.14 19.65-.27 1.67-2.31 4.1-2.47 5.77s1.68 2.4 1.44 4.9-1.72 3.92-1.93 6.14.92 4.88 3.68 5.23 16-.36 18.82-1.13 3.63-3 4.59-4.19-.08-1.89-.13-4.4 1.08-2.58 1.23-4.22a2.139 2.139 0 0 0-.07-.8c-.61-2.39.77-6.7 2.21-13 3.4-14.67 7.33-31.21 9.29-43 1-5.88 4.51-32.22 7.39-54 0 0 2.76-4.45 4.16-13.07" class="cls-2"/>
            <g id="Grupo_1458">
                <g id="Grupo_1457" clip-path="url(#clip-path-4)">
                    <g id="Grupo_1456">
                        <path id="Trazado_5294" d="M122.52 269.47l-.33 12.61a117.476 117.476 0 0 0 19 0c12.34-1.1 19.85-6.57 19.85-6.57l-1-6.71s-14 3.77-20.89 3.24-13.49-1.36-16.63-2.57z" class="cls-8"/>
                    </g>
                </g>
            </g>
            <path id="Trazado_5296" d="M114.959 424.678a22.216 22.216 0 0 1-2.412-.092c-2.991-.379-4.353-3.257-4.114-5.773a9.326 9.326 0 0 1 .959-3.042 9.5 9.5 0 0 0 .97-3.1 3.992 3.992 0 0 0-.746-2.668 3.533 3.533 0 0 1-.694-2.232 9.454 9.454 0 0 1 1.32-3.2 9.779 9.779 0 0 0 1.154-2.6c.243-1.521.28-1.683.568-2.945.394-1.723 1.213-5.309 3.576-16.726a90.283 90.283 0 0 1 2.426-9.07 40 40 0 0 0 2.176-17.583c-.289-4.634 1.9-85.672 2-89.12a.506.506 0 0 1 .162-.355.512.512 0 0 1 .368-.13l37.36 2.26a.5.5 0 0 1 .469.529.492.492 0 0 1-.529.469l-36.844-2.229c-.191 7.1-2.26 84.114-1.987 88.509a40.809 40.809 0 0 1-2.218 17.946 89.183 89.183 0 0 0-2.4 8.977c-2.366 11.427-3.187 15.019-3.581 16.746-.288 1.26-.317 1.392-.555 2.881a10.147 10.147 0 0 1-1.266 2.927 8.982 8.982 0 0 0-1.2 2.812 2.651 2.651 0 0 0 .56 1.626 4.959 4.959 0 0 1 .88 3.274 10.271 10.271 0 0 1-1.054 3.414 8.445 8.445 0 0 0-.875 2.725c-.2 2.1.852 4.384 3.245 4.687 2.694.344 15.794-.343 18.625-1.116a6.156 6.156 0 0 0 3.673-3.078c.228-.348.441-.672.66-.944.394-.489.344-.785.124-1.647a9.914 9.914 0 0 1-.365-2.429 4.875 4.875 0 0 1 .746-2.942 2.912 2.912 0 0 0 .486-1.334 1.647 1.647 0 0 0-.053-.618c-.511-2 .245-5.113 1.292-9.419.288-1.182.6-2.459.911-3.829l1.019-4.386c3.2-13.752 6.5-27.972 8.266-38.584.994-5.849 4.47-31.922 7.387-53.984a.517.517 0 0 1 .071-.2c.027-.043 2.727-4.483 4.091-12.886a.5.5 0 0 1 .988.16c-1.306 8.04-3.756 12.452-4.172 13.159-2.916 22.047-6.383 48.06-7.379 53.915-1.77 10.641-5.078 24.878-8.278 38.644l-1.018 4.385c-.314 1.373-.625 2.654-.914 3.841-1.013 4.165-1.745 7.174-1.3 8.922a2.624 2.624 0 0 1 .084.975 3.871 3.871 0 0 1-.615 1.737 3.915 3.915 0 0 0-.613 2.422 8.969 8.969 0 0 0 .335 2.2 2.469 2.469 0 0 1-.316 2.522c-.2.248-.393.545-.6.863a7.17 7.17 0 0 1-4.246 3.495c-2.374.651-11.772 1.239-16.607 1.239z" class="cls-5"/>
            <path id="Trazado_5297" d="M115.871 400.58a.5.5 0 0 1-.246-.935c12.485-7.041 25.355-28.79 25.484-29.008a.5.5 0 0 1 .862.506c-.53.9-13.134 22.2-25.855 29.373a.5.5 0 0 1-.245.064z" class="cls-5"/>
            <path id="Trazado_5298" d="M123.706 419.11a17.426 17.426 0 0 1-3.856-.432.5.5 0 1 1 .22-.975 16.4 16.4 0 0 0 9.375-.632c.88-.315 1.7-.707 1.767-1.448s-1.205-.976-1.756-1.047l-13.869-1.75a.5.5 0 0 1 .125-.992l13.871 1.75c1.775.23 2.731 1.008 2.625 2.133-.14 1.475-1.679 2.028-2.419 2.294a17.419 17.419 0 0 1-6.083 1.099z" class="cls-5"/>
            <path id="Trazado_5299" d="M132.41 410.66h-.01a34.592 34.592 0 0 1-16.59-4.566.5.5 0 1 1 .5-.867 33.59 33.59 0 0 0 16.109 4.433.5.5 0 0 1-.008 1z" class="cls-5"/>
            <path id="Trazado_5300" d="M124.18 371.53a.5.5 0 0 1-.025-1c2.506-.126 6.986-.878 10.1-4.385-3.718.194-9.254-.015-9.513-.026a.5.5 0 0 1-.481-.519.538.538 0 0 1 .519-.481c.071 0 7.011.266 10.537-.048a.51.51 0 0 1 .479.252.5.5 0 0 1-.031.541c-3.35 4.592-8.68 5.52-11.559 5.664z" class="cls-5"/>
            <path id="Trazado_5301" d="M117.07 424.15a.5.5 0 0 1-.416-.222l-.22-.33a4.167 4.167 0 0 1 .753-5.2l1.223-5.532a4.523 4.523 0 0 1 .937-5.515l1.352-10.972a6.645 6.645 0 0 1 1.187-6.379l.6-.78c1.485-5.052 3.691-13.435 3.368-14.707a4.681 4.681 0 0 1 .925-3.775l.285-4.937-.534-1.755a5.345 5.345 0 0 1 .615-3.927c.059-1.64.654-18.145.994-32.241.356-14.779 1.35-50.532 1.36-50.892a.5.5 0 1 1 1 .028c-.01.359-1 36.11-1.36 50.887s-.994 32.212-1 32.387a.494.494 0 0 1-.078.25 4.32 4.32 0 0 0-.564 3.252l.55 1.8a.513.513 0 0 1 .021.175l-.3 5.189a.5.5 0 0 1-.118.295 3.669 3.669 0 0 0-.819 3.046c.492 1.933-3.011 13.93-3.413 15.292a.494.494 0 0 1-.083.163l-.67.87a5.648 5.648 0 0 0-.986 5.525.5.5 0 0 1 .026.232l-1.39 11.279a.5.5 0 0 1-.179.325 3.516 3.516 0 0 0-.77 4.534.5.5 0 0 1 .061.369l-1.3 5.88a.5.5 0 0 1-.165.273 3.162 3.162 0 0 0-.682 4.024l.205.307a.5.5 0 0 1-.416.777z" class="cls-5"/>
            <g id="Grupo_1459">
                <path id="Trazado_5302" d="M194.71 210.72c-1 2.19-9.52 8-9.52 8a6.49 6.49 0 0 1 .6-2.78c.61-.94 1-1.84 1.39-2.4a5.806 5.806 0 0 0-1.39-4.17c-1.16-1.29-2.07 1.93-2.58 4.07s-3.85 5.4-3.7 7c.29 1.84.66 3.65 1.13 5.45 0 0-14.25 5-15.82 2a199.945 199.945 0 0 0-11-18.75c-3.35 4.68-.71 11.14 1.18 19.08s7.71 19.06 7.71 19.06c10.42-5 22.26-18 22.26-18s2.78-1.24 6.22-2.42 2.94-2.19 3.49-5.57 3.44-8 3.27-9.74-2.22-3.01-3.24-.83z" class="cls-4"/>
                <path id="Trazado_5303" d="M162.71 247.78a.5.5 0 0 1-.443-.268c-.059-.112-5.871-11.267-7.753-19.176-.323-1.353-.666-2.663-1-3.929-1.618-6.164-3.015-11.487-.1-15.558a.481.481 0 0 1 .416-.209.5.5 0 0 1 .408.224 201.216 201.216 0 0 1 11.027 18.8c.919 1.756 9.044-.128 14.778-2.093-.412-1.632-.749-3.29-1.026-5.05-.1-1.064.807-2.384 1.858-3.911a12.276 12.276 0 0 0 1.85-3.283c.745-3.128 1.408-4.5 2.288-4.719a1.12 1.12 0 0 1 1.15.431 6.28 6.28 0 0 1 1.517 4.537.492.492 0 0 1-.089.253 10.65 10.65 0 0 0-.557.961c-.234.435-.5.924-.824 1.425a5.854 5.854 0 0 0-.443 1.5c2.733-1.919 7.8-5.687 8.489-7.2v-.005a2.013 2.013 0 0 1 2.192-1.416 2.668 2.668 0 0 1 2 2.409c.1 1-.6 2.635-1.414 4.525a25.62 25.62 0 0 0-1.86 5.344c-.088.536-.148 1.012-.2 1.437-.311 2.443-.559 3.476-3.62 4.526-3.029 1.039-5.573 2.138-6.084 2.362-1.016 1.1-12.378 13.254-22.342 18.035a.491.491 0 0 1-.218.048zm-8.886-37.726c-2.1 3.609-.87 8.276.658 14.1.334 1.273.681 2.591 1 3.951 1.645 6.911 6.363 16.388 7.445 18.511 10.107-5.049 21.553-17.545 21.67-17.672a.494.494 0 0 1 .166-.12c.027-.012 2.839-1.262 6.261-2.436 2.594-.889 2.669-1.486 2.952-3.706.055-.436.117-.923.207-1.472a26.268 26.268 0 0 1 1.928-5.577c.694-1.616 1.41-3.287 1.338-4.033a1.7 1.7 0 0 0-1.173-1.522c-.553-.1-.909.411-1.116.853-1.032 2.253-8.809 7.6-9.692 8.2a.5.5 0 0 1-.514.03.5.5 0 0 1-.268-.439 7.053 7.053 0 0 1 .646-2.994c.343-.538.594-1 .817-1.418.192-.355.361-.669.535-.937a5.276 5.276 0 0 0-1.277-3.679c-.1-.11-.155-.122-.156-.122-.061.011-.66.214-1.559 3.982a12.727 12.727 0 0 1-2 3.618c-.822 1.194-1.753 2.548-1.69 3.219.293 1.857.66 3.625 1.116 5.371a.5.5 0 0 1-.318.6c-2.448.86-14.743 4.982-16.429 1.76a200.635 200.635 0 0 0-10.547-18.068z" class="cls-5"/>
            </g>
            <g id="Grupo_1460">
                <path id="Trazado_5304" d="M161 227.61c-.13 7.24 1.3 31.79 2.85 41.53l-42.41-1.07v-.71c3.11-11.52 1.09-24-3.82-34.83-2.6-5.75-3.76-13.1-5.1-20.06-3.41-17.72 5.15-23.21 12.3-23.89 2.76-.13 3-2 5-1.85a8.545 8.545 0 0 0 4.08-.5c.89 3.63 5.82 14.29 7.51 15.51a5.22 5.22 0 0 0 5.85.42c1.7-1.19 2.17-3.46 2.56-5.5a13.206 13.206 0 0 1 .94-3.21c2.5 1.25 6.86 2.73 10.1 8.56 4 12.87 1.8 4.62 4.88 23.5.53 2.89-4.74 2.1-4.74 2.1z" class="cls-4"/>
                <path id="Trazado_5305" d="M163.85 269.64h-.013l-42.41-1.07a.5.5 0 0 1-.487-.5v-.71a.515.515 0 0 1 .017-.13c2.851-10.56 1.5-22.811-3.792-34.494-2.295-5.075-3.483-11.4-4.632-17.51q-.25-1.336-.5-2.661c-1.594-8.285-.76-14.677 2.478-19a14.243 14.243 0 0 1 10.265-5.482 4.356 4.356 0 0 0 2.618-.994 3.461 3.461 0 0 1 2.467-.858 8.1 8.1 0 0 0 3.865-.468.5.5 0 0 1 .664.348c.885 3.61 5.774 14.11 7.317 15.224a4.7 4.7 0 0 0 5.306.393c1.54-1.081 1.972-3.343 2.32-5.162a13.584 13.584 0 0 1 .973-3.316.5.5 0 0 1 .287-.27.5.5 0 0 1 .394.023c.289.144.6.291.936.448a18.623 18.623 0 0 1 9.378 8.316.553.553 0 0 1 .04.094c.49 1.575.886 2.833 1.211 3.863a33.7 33.7 0 0 1 1.966 8.27c.288 2.12.723 5.325 1.72 11.435a1.991 1.991 0 0 1-.492 1.832c-1.013 1.045-3.191 1-4.249.908-.056 7.968 1.371 31.593 2.851 40.893a.5.5 0 0 1-.494.578zm-41.91-2.057l41.325 1.042c-1.49-9.955-2.9-33.776-2.765-41.024a.494.494 0 0 1 .177-.372.509.509 0 0 1 .4-.114c.832.124 3.161.266 3.95-.55a1 1 0 0 0 .225-.965c-1-6.134-1.437-9.346-1.726-11.472a32.991 32.991 0 0 0-1.929-8.1c-.322-1.02-.714-2.264-1.2-3.816a17.507 17.507 0 0 0-8.9-7.852l-.475-.224a12.708 12.708 0 0 0-.706 2.607c-.383 2.011-.858 4.495-2.767 5.831a5.7 5.7 0 0 1-6.445-.437c-1.751-1.264-6.362-11.221-7.543-15.255a9.161 9.161 0 0 1-3.8.349 2.484 2.484 0 0 0-1.79.677 5.3 5.3 0 0 1-3.127 1.176 13.4 13.4 0 0 0-9.536 5.084c-3.062 4.088-3.835 10.215-2.3 18.211q.255 1.326.5 2.667c1.138 6.055 2.314 12.316 4.56 17.282 5.381 11.869 6.752 24.333 3.864 35.1z" class="cls-5"/>
            </g>
            <path id="Trazado_5306" d="M154.33 194.11l-4.1-1.43c2.78 9.55.37 20.4-6.66 16.11s-9.82-16.62-11.92-22c-1.1-.34-5.57-.5-7.89 1.28 2.42 4.43 9 13.23 8.23 20.38-.88 8-7.17 15.1-18.92 7.06 1.6 12.12 6.68 20.86 7.66 25 3.58 15 1.19 17.05-.48 31.85 17 8.67 37.57 4.36 46.58 1.72-2.75-15.08-1.54-53.08-12.5-79.97z" class="cls-2"/>
            <g id="Grupo_1463">
                <g id="Grupo_1462" clip-path="url(#clip-path-5)">
                    <g id="Grupo_1461">
                        <path id="Trazado_5307" d="M128.42 257.77s27.73 12.1 31.68.35a64.475 64.475 0 0 1-22.16.91l-9.52-1.26" class="cls-8"/>
                        <path id="Trazado_5308" d="M118.59 231.59l20.15-16s4 11-6.72 17.31c-7.25 4.27-13.43-1.31-13.43-1.31z" class="cls-8"/>
                    </g>
                </g>
            </g>
            <path id="Trazado_5310" d="M143.8 278c-7.712 0-16.111-1.279-23.781-5.191a.5.5 0 0 1-.27-.5c.429-3.8.9-6.73 1.315-9.314 1.171-7.287 1.816-11.3-.824-22.365a41.582 41.582 0 0 0-1.886-5.168 78.091 78.091 0 0 1-5.784-19.883.5.5 0 0 1 .778-.478c4.842 3.314 9.153 4.261 12.462 2.741 3.061-1.406 5.183-4.936 5.679-9.442.605-5.619-3.613-12.529-6.4-17.1-.7-1.144-1.3-2.131-1.767-2.985a.5.5 0 0 1 .135-.637c2.519-1.931 7.251-1.7 8.341-1.36a.5.5 0 0 1 .319.295c.4 1.035.821 2.29 1.306 3.744 1.94 5.827 4.871 14.632 10.408 18.011 1.781 1.087 3.28 1.182 4.457.281 2.737-2.094 3.393-9.193 1.463-15.824a.5.5 0 0 1 .645-.612l4.1 1.43a.5.5 0 0 1 .3.283c7.689 18.866 9.423 43.329 10.688 61.192.546 7.707 1.018 14.363 1.841 18.877a.5.5 0 0 1-.351.57A85.106 85.106 0 0 1 143.8 278zm-23.018-5.926c16.764 8.367 37.051 4.071 45.473 1.654-.784-4.552-1.245-11.052-1.775-18.541-1.256-17.729-2.975-41.986-10.532-60.677l-2.989-1.042c1.744 6.821.886 13.713-2.069 15.973-1.058.809-2.884 1.427-5.584-.221-5.85-3.57-8.851-12.584-10.837-18.549-.443-1.329-.829-2.491-1.2-3.457-1.275-.267-4.783-.281-6.859 1.012.421.743.939 1.591 1.525 2.551 2.862 4.687 7.186 11.772 6.545 17.73-.534 4.86-2.873 8.689-6.255 10.243-2.42 1.111-6.518 1.58-12.512-2.21a78.984 78.984 0 0 0 5.565 18.544 41.947 41.947 0 0 1 1.931 5.314c2.687 11.256 2.031 15.341.839 22.755-.394 2.492-.848 5.308-1.262 8.918z" class="cls-5"/>
            <path id="Trazado_5311" d="M157.291 261.69a.5.5 0 0 1-.211-.954 4.594 4.594 0 0 0 2.533-3.118.5.5 0 1 1 .974.225 5.6 5.6 0 0 1-3.087 3.8.5.5 0 0 1-.209.047z" class="cls-5"/>
            <path id="Trazado_5312" d="M148.826 262.951a44.149 44.149 0 0 1-20.639-5.119.5.5 0 0 1 .466-.885 43.166 43.166 0 0 0 24.121 4.824.5.5 0 0 1 .091 1c-1.347.12-2.696.18-4.039.18z" class="cls-5"/>
            <path id="Trazado_5313" d="M191.68 194.5L183 217.65a2.889 2.889 0 0 0 .25 2.53l1.61 2.58c.79 1.27 3.58 1.65 4.78.83a2.809 2.809 0 0 0 1-1.19l8.56-23.13a2.889 2.889 0 0 0-.62-3.16l-2.7-2.61a2.511 2.511 0 0 0-3.55 0c-.045.046-.088.092-.13.141a2.742 2.742 0 0 0-.52.859z" class="cls-5"/>
            <g id="Grupo_1464">
                <path id="Trazado_5314" d="M113.05 200.73a28.558 28.558 0 0 0 2.46 10c4.17 9.92 20.09 34.61 23.58 36.28s39.16-17.53 41.74-20.16a6 6 0 0 0 1.14-6.13s-.05 2.46 2.05 2c1.32-.29.23-4.37.23-4.37s2.42-1.71.11-4.87c0 0 3.26 0 3-2.46-.09-1-9.69-1.13-11.16 1.64-1.79 3.36-3.57 12.12-3.57 12.12s-23.24 6-28.06 6.89L132 204.1" class="cls-4"/>
                <path id="Trazado_5315" d="M139.6 247.587a1.721 1.721 0 0 1-.726-.126c-3.753-1.8-19.872-27.134-23.825-36.537a28.922 28.922 0 0 1-2.5-10.164.5.5 0 0 1 .469-.529.506.506 0 0 1 .529.469 27.954 27.954 0 0 0 2.417 9.825c4.161 9.9 20.081 34.475 23.34 36.034 3.052 1.461 38.493-17.332 41.167-20.059a5.459 5.459 0 0 0 1.358-4.239 3.418 3.418 0 0 1-.361-1.551.5.5 0 0 1 .968-.167 6.51 6.51 0 0 1 .357 1.377.983.983 0 0 0 .163.177 1.082 1.082 0 0 0 .955.135c.018 0 .051-.011.1-.087.352-.58.07-2.493-.244-3.666a.5.5 0 0 1 .194-.537 2.457 2.457 0 0 0 .869-1.492 3.651 3.651 0 0 0-.874-2.675.5.5 0 0 1 .4-.795 3.365 3.365 0 0 0 2.188-.774 1.338 1.338 0 0 0 .326-1 16.273 16.273 0 0 0-6.9.036c-1.773.363-2.954.95-3.326 1.653-1.736 3.257-3.5 11.9-3.522 11.984a.5.5 0 0 1-.365.385c-.233.06-23.312 6.014-28.094 6.9a.5.5 0 0 1-.546-.285l-12.57-27.569a.5.5 0 1 1 .91-.415l12.405 27.205c5.133-1.021 24.671-6.043 27.342-6.73.338-1.61 1.921-8.882 3.555-11.949 1.422-2.681 8.569-2.794 10.781-2.349.586.119 1.267.328 1.318.9a2.36 2.36 0 0 1-.569 1.9 3.669 3.669 0 0 1-2.067 1.015 4.139 4.139 0 0 1 .593 2.735 3.45 3.45 0 0 1-1.005 1.9c.219.909.664 3.137.055 4.139a1.142 1.142 0 0 1-.738.543 2.3 2.3 0 0 1-1.272-.041 6.484 6.484 0 0 1-1.652 4.017c-1.843 1.883-35.149 20.407-41.603 20.407zm47.263-36.514z" class="cls-5"/>
            </g>
            <g id="Grupo_1465">
                <path id="Trazado_5316" d="M181.2 228.34a9.929 9.929 0 0 1 3.59-4.51c1.88-.89 4.47-1.17 6.52-1.56 0 0 1.6-6.78 2.47-6.59 2.65.55.58 6.78.58 6.78" class="cls-4"/>
                <path id="Trazado_5317" d="M181.2 228.84a.5.5 0 0 1-.184-.035.5.5 0 0 1-.281-.65 10.4 10.4 0 0 1 3.771-4.737 20.656 20.656 0 0 1 5.327-1.4c.365-.062.722-.122 1.066-.184 1.665-6.937 2.553-6.742 2.988-6.646a1.932 1.932 0 0 1 1.305.959c1.1 1.916-.205 6.007-.358 6.467a.5.5 0 1 1-.949-.316c.376-1.133 1.188-4.356.441-5.652a.929.929 0 0 0-.509-.442c-.487.586-1.407 3.58-2.02 6.177a.5.5 0 0 1-.394.376c-.446.085-.918.165-1.4.247a20.264 20.264 0 0 0-5 1.274 9.4 9.4 0 0 0-3.339 4.242.5.5 0 0 1-.464.32zm12.478-12.67z" class="cls-5"/>
            </g>
            <path id="Trazado_5318" d="M189.6 219.88a.5.5 0 0 1-.323-.881 24.88 24.88 0 0 0 3.307-3.814 19.521 19.521 0 0 1 2.02-2.426 2.447 2.447 0 0 1 3.3.128.5.5 0 1 1-.707.707 1.438 1.438 0 0 0-1.934-.082 19.7 19.7 0 0 0-1.881 2.277 25.507 25.507 0 0 1-3.458 3.972.5.5 0 0 1-.324.119z" class="cls-5"/>
            <path id="Trazado_5319" d="M179 220.86a.488.488 0 0 1-.206-.045.5.5 0 0 1-.25-.661 5.247 5.247 0 0 1 4.308-2.273 2.191 2.191 0 0 1 2.048 1.679.5.5 0 0 1-.96.281 1.19 1.19 0 0 0-1.158-.962 4.293 4.293 0 0 0-3.326 1.687.5.5 0 0 1-.456.294z" class="cls-5"/>
            <path id="Trazado_5320" d="M184.63 218.11a.5.5 0 0 1-.48-.358 1.541 1.541 0 0 0-.893-1.076c-1.219-.5-3.314.38-4.018.763a.5.5 0 0 1-.479-.878c.12-.065 2.969-1.6 4.878-.81a2.519 2.519 0 0 1 1.471 1.717.5.5 0 0 1-.337.621.466.466 0 0 1-.142.021z" class="cls-5"/>
            <path id="Trazado_5321" d="M179.589 214.5a.5.5 0 0 1-.1-.991c.2-.039 1.987-.385 2.43-.427l1.126-.113c1.2-.123 2.337-.239 3-.239a.5.5 0 0 1 0 1c-.612 0-1.722.114-2.9.234l-1.133.114c-.335.031-1.8.308-2.333.413a.539.539 0 0 1-.09.009z" class="cls-5"/>
            <g id="Grupo_1466">
                <path id="Trazado_5322" d="M155.94 299.41s-6.25-5.51-9.88-6.56" class="cls-2"/>
                <path id="Trazado_5323" d="M155.94 299.91a.5.5 0 0 1-.331-.125c-.061-.055-6.208-5.448-9.688-6.455a.5.5 0 0 1 .278-.961c3.695 1.069 9.813 6.438 10.072 6.666a.5.5 0 0 1-.331.875z" class="cls-5"/>
            </g>
            <path id="Trazado_5324" d="M124.38 428.61a.5.5 0 0 1-.183-.965 18.17 18.17 0 0 1 5.933-1.245.509.509 0 0 1 .519.481.5.5 0 0 1-.48.519 17.206 17.206 0 0 0-5.607 1.176.485.485 0 0 1-.182.034z" class="cls-5"/>
            <path id="Trazado_5325" d="M124.24 432.5a.5.5 0 0 1-.169-.971 47.614 47.614 0 0 1 4.844-1.447.5.5 0 1 1 .21.977 47.326 47.326 0 0 0-4.716 1.412.527.527 0 0 1-.169.029z" class="cls-5"/>
            <path id="Trazado_5326" d="M124.43 436.15a.5.5 0 0 1-.141-.979l4.48-1.32a.5.5 0 1 1 .282.959l-4.48 1.32a.49.49 0 0 1-.141.02z" class="cls-5"/>
            <path id="Trazado_5327" d="M126.3 439.17a.5.5 0 0 1-.179-.967l3.72-1.43a.5.5 0 1 1 .358.934l-3.72 1.43a.514.514 0 0 1-.179.033z" class="cls-5"/>
            <path id="Trazado_5328" d="M130.15 441.76a.5.5 0 0 1-.295-.9l2.23-1.629a.5.5 0 1 1 .59.806l-2.23 1.63a.494.494 0 0 1-.295.093z" class="cls-5"/>
            <path id="Trazado_5329" d="M133.09 443.15a.484.484 0 0 1-.145-.021.5.5 0 0 1-.334-.623c.067-.22-.557-.546-1.278-.924a14.26 14.26 0 0 1-4.439-3.3c-3-3.438-1.841-13.472-1.79-13.9a.5.5 0 0 1 .556-.437.5.5 0 0 1 .437.556c-.013.1-1.161 10.017 1.549 13.121a13.2 13.2 0 0 0 4.154 3.078c1.115.583 2.077 1.088 1.771 2.1a.5.5 0 0 1-.481.35z" class="cls-5"/>
            <path id="Trazado_5330" d="M149.84 192.27s4.22 16.45-2.55 17.7c-9.23 1.7-15.64-23.21-15.64-23.21 1.41-.09 1.58-.68 2.81-1.38 0 0 10.31 20.62 15.38 6.89z" class="cls-5"/>
            <path id="Trazado_5331" d="M121.77 189.15s-9.65 1.91-9.68 16.26a62.106 62.106 0 0 0 6.33 26.3s7.53-.61 12.29-4.1c10-7.3 8.38-11.4 8.38-11.4l-5.24-10.38s-1.72-6.65-9.2-17.25z" class="cls-5"/>
            <path id="Trazado_5332" d="M154.92 194.68c5.26 14.93 5.5 20.52 6.45 27.41 0 0 5.15-1 5.94-2.14 0 0-2.5-12.22-5.2-18.54-1.72-4.01-3.98-5.41-7.19-6.73z" class="cls-5"/>
            <g id="Grupo_1467">
                <path id="Trazado_5333" d="M149.83 177.73s-.75 13.68-.7 14.78c.09 2.07 1.59 4.82.21 6.37a5.22 5.22 0 0 1-5.79.93 13 13 0 0 1-4.73-4 53.189 53.189 0 0 1-6.14-9.39 9.22 9.22 0 0 0 2.44-4s.27-1.16.28-1.22a31.317 31.317 0 0 0-.11-8.48 55.423 55.423 0 0 0-2.41-10.22z" class="cls-4"/>
                <path id="Trazado_5334" d="M145.76 200.8a5.709 5.709 0 0 1-2.422-.542 13.567 13.567 0 0 1-4.922-4.159 53.717 53.717 0 0 1-6.181-9.456.5.5 0 0 1 .1-.588 8.743 8.743 0 0 0 2.308-3.783s.246-1.061.267-1.168a30.727 30.727 0 0 0-.113-8.315 55.1 55.1 0 0 0-2.389-10.134.5.5 0 0 1 .808-.532l16.95 15.23a.5.5 0 0 1 .165.4c-.259 4.723-.738 13.88-.7 14.73a11.712 11.712 0 0 0 .374 2.074c.383 1.6.816 3.41-.29 4.651a5.745 5.745 0 0 1-3.955 1.592zm-12.468-14.29a52.827 52.827 0 0 0 5.915 8.979 12.587 12.587 0 0 0 4.565 3.868 4.69 4.69 0 0 0 5.225-.846c.728-.82.391-2.23.034-3.723a12.465 12.465 0 0 1-.4-2.261c-.047-1.043.585-12.7.688-14.59l-15.4-13.837a56.113 56.113 0 0 1 1.867 8.547 31.746 31.746 0 0 1 .111 8.61c-.013.08-.289 1.271-.289 1.271a9.781 9.781 0 0 1-2.316 3.987z" class="cls-5"/>
            </g>
            <g id="Grupo_1468">
                <path id="Trazado_5335" d="M135.61 190.79a43.023 43.023 0 0 1 6.86 2.92" class="cls-5"/>
                <path id="Trazado_5336" d="M142.47 194.21a.5.5 0 0 1-.235-.059 42.806 42.806 0 0 0-6.78-2.886.5.5 0 1 1 .31-.95 43.646 43.646 0 0 1 6.94 2.954.5.5 0 0 1-.235.941z" class="cls-5"/>
            </g>
            <g id="Grupo_1469">
                <path id="Trazado_5337" d="M133.52 144.64s-8.52 4.87-4.11 17.58 14.24 26.91 23.15 25 11.22-19.61 6.51-31.41-16.71-18.33-25.55-11.17z" class="cls-4"/>
                <path id="Trazado_5338" d="M150.9 187.9c-8.534 0-17.513-12.675-21.966-25.511-4.336-12.5 3.647-17.754 4.293-18.154a13.164 13.164 0 0 1 11.986-2.6c6.011 1.567 11.5 6.932 14.317 14 3.366 8.431 3.2 19.856-.382 26.575-1.622 3.042-3.865 4.947-6.487 5.509a8.382 8.382 0 0 1-1.761.181zm-9.257-45.739a12.239 12.239 0 0 0-7.812 2.873.592.592 0 0 1-.066.045c-.333.192-8.1 4.839-3.887 16.982 4.685 13.5 14.409 26.423 22.573 24.675 2.325-.5 4.336-2.228 5.815-5 3.459-6.486 3.6-17.549.335-25.734-2.705-6.778-7.932-11.913-13.64-13.4a13.115 13.115 0 0 0-3.314-.446zm-8.127 2.484z" class="cls-5"/>
            </g>
            <path id="Trazado_5339" d="M158.93 168.1c.06 1-.35 1.92-.91 2s-1.07-.8-1.13-1.84.33-1.91.91-1.95 1.07.74 1.13 1.79z" class="cls-5"/>
            <path id="Trazado_5340" d="M150.24 167.69c.06 1-.34 1.91-.89 1.95s-1.08-.8-1.14-1.83.34-1.92.91-2 1.05.82 1.12 1.88z" class="cls-5"/>
            <g id="Grupo_1470">
                <path id="Trazado_5341" d="M153.51 146.83c-5.71-5.56-13.48-7.28-19.7-2.25 0 0-8.51 4.87-4.1 17.59a64.629 64.629 0 0 0 3.87 8.82l.16.14s-2.8-2.79 8.31-8.93c3.65-2.06 9.04-14.91 11.46-15.37z" class="cls-5"/>
                <path id="Trazado_5342" d="M133.731 171.627a.486.486 0 0 1-.319-.12l-.161-.14a.5.5 0 0 1-.112-.142 65.355 65.355 0 0 1-3.9-8.889c-4.494-12.964 4.235-18.139 4.324-18.19 5.914-4.791 13.907-3.9 20.3 2.326a.5.5 0 0 1-.255.849c-.953.181-3.054 3.7-4.742 6.532-2.247 3.764-4.569 7.656-6.566 8.783-6.824 3.771-8.156 6.154-8.343 7.239a1.107 1.107 0 0 0 .151.911.5.5 0 0 1-.372.841zM142 142.113a12.378 12.378 0 0 0-7.876 2.856c-.4.237-8.156 4.885-3.942 17.037a64.188 64.188 0 0 0 2.965 7.043c.795-2.1 3.7-4.546 8.66-7.286 1.761-.994 4.116-4.941 6.194-8.423 2.034-3.408 3.471-5.749 4.651-6.631A15.96 15.96 0 0 0 142 142.113z" class="cls-5"/>
            </g>
            <g id="Grupo_1471">
                <path id="Trazado_5343" d="M144.59 151s.78-8.85 6.94-9.15c3.21-.16 7.45 4.15 8 6.42a8.141 8.141 0 0 0 6.35 6.2s-1.78 6-5.25 6.44c-5.73.7-8.7-.64-12.4-5.69a29.513 29.513 0 0 0-3.48-4.09z" class="cls-5"/>
                <path id="Trazado_5344" d="M158.061 161.582c-4.32 0-7.039-1.705-10.234-6.066a29.069 29.069 0 0 0-3.427-4.029l-.125-.1a.5.5 0 0 1-.183-.432c.033-.379.893-9.288 7.413-9.6 3.388-.154 7.891 4.242 8.511 6.8a7.65 7.65 0 0 0 5.962 5.828.5.5 0 0 1 .381.632c-.076.258-1.916 6.319-5.666 6.794a21.842 21.842 0 0 1-2.632.173zm-12.943-10.789a30.072 30.072 0 0 1 3.521 4.139c3.575 4.88 6.368 6.161 11.93 5.482 2.553-.324 4.16-4.182 4.662-5.582a8.65 8.65 0 0 1-6.189-6.453c-.481-1.983-4.527-6.21-7.487-6.029-5.092.25-6.255 7.041-6.437 8.443z" class="cls-5"/>
            </g>
            <g id="Grupo_1472">
                <path id="Trazado_5345" d="M135.42 168s-3.37-6.94-6.37.7c-1.87 4.76 5.61 8.57 8.17 7.31" class="cls-4"/>
                <path id="Trazado_5346" d="M135.972 176.755a9.153 9.153 0 0 1-5.685-2.46c-1.881-1.731-2.486-3.783-1.7-5.777 1.011-2.573 2.171-3.85 3.549-3.9 2.122-.081 3.672 3.033 3.737 3.167a.5.5 0 0 1-.9.437c-.357-.732-1.538-2.606-2.753-2.606h-.046c-.912.036-1.83 1.167-2.656 3.269-.839 2.137.548 3.847 1.449 4.677 1.983 1.825 4.872 2.573 6.036 2a.5.5 0 1 1 .441.9 3.33 3.33 0 0 1-1.472.293z" class="cls-5"/>
            </g>
            <path id="Trazado_5347" d="M151.75 175.5a.5.5 0 0 1-.152-.976l3.694-1.183a14.345 14.345 0 0 1-1.567-4.78 5.835 5.835 0 0 1 1.384-5.106.5.5 0 0 1 .742.67 4.854 4.854 0 0 0-1.142 4.26 13.415 13.415 0 0 0 1.751 4.99.5.5 0 0 1-.278.731l-4.28 1.37a.5.5 0 0 1-.152.024z" class="cls-5"/>
            <path id="Trazado_5348" d="M151.542 180.088a5.519 5.519 0 0 1-3.9-1.6.5.5 0 1 1 .706-.708 4.516 4.516 0 0 0 4.716 1.044.5.5 0 1 1 .342.94 5.469 5.469 0 0 1-1.864.324z" class="cls-5"/>
            <path id="Trazado_5349" d="M143.21 164.17a.5.5 0 0 1-.371-.836c.033-.036 3.285-3.568 7.193-1.841a.5.5 0 1 1-.4.915c-3.253-1.44-6.02 1.567-6.047 1.6a.5.5 0 0 1-.375.162z" class="cls-5"/>
            <path id="Trazado_5350" d="M160.561 165.53a.58.58 0 0 1-.072-.005.5.5 0 0 1-.424-.567 1.65 1.65 0 0 0-.342-1.555c-.628-.537-1.977-.28-2.445-.135a.5.5 0 0 1-.3-.955c.225-.071 2.23-.66 3.39.327a2.556 2.556 0 0 1 .685 2.461.5.5 0 0 1-.492.429z" class="cls-5"/>
            <g id="Grupo_1473">
                <path id="Trazado_5351" d="M135.35 171.8a1.639 1.639 0 0 1-1.6-1.09c-.29-.63-.37-1.35-.66-2a1.66 1.66 0 0 0-1.61-1.09" class="cls-5"/>
                <path id="Trazado_5352" d="M135.293 172.3a2.132 2.132 0 0 1-2.014-1.424 6.57 6.57 0 0 1-.345-1.04 6.277 6.277 0 0 0-.3-.923 1.148 1.148 0 0 0-1.138-.794.525.525 0 0 1-.515-.485.5.5 0 0 1 .485-.515 2.16 2.16 0 0 1 2.1 1.419 7 7 0 0 1 .339 1.035 6 6 0 0 0 .3.927 1.191 1.191 0 0 0 1.129.8.513.513 0 0 1 .517.483.5.5 0 0 1-.483.516z" class="cls-5"/>
            </g>
            <g id="Grupo_1474">
                <path id="Trazado_5353" d="M147.82 144.37a19.7 19.7 0 0 0-2-5.11s1.63-.41 2.53-.6c-.2 1.75-.35 3.95-.53 5.71z" class="cls-5"/>
                <path id="Trazado_5354" d="M147.819 144.87a.5.5 0 0 1-.486-.385 19.127 19.127 0 0 0-1.949-4.98.5.5 0 0 1 .314-.73s1.642-.413 2.549-.6a.5.5 0 0 1 .6.546c-.113.987-.21 2.118-.3 3.232-.074.859-.146 1.707-.225 2.472a.5.5 0 0 1-.464.448zm-1.252-5.28a20.209 20.209 0 0 1 .985 2.2c.072-.845.146-1.7.226-2.489-.416.099-.862.199-1.211.289z" class="cls-5"/>
            </g>
            <path id="Trazado_5355" d="M149.53 186.84l.07 3a3.793 3.793 0 0 1-2.1.28c-3.84-.45-7.71-9-7.95-9.49l.08.09c4.54 5.01 7.91 6.09 9.9 6.12z" class="cls-5"/>
        </g>
        <g id="freepik--paper-plane--inject-2">
            <g id="Grupo_1475">
                <path id="Trazado_5356" d="M352.707 120.662l-3.593 11.47 38.956-14.36z" class="cls-2"/>
                <path id="Trazado_5357" d="M349 132.5a.4.4 0 0 1-.149-.088.382.382 0 0 1-.1-.39l3.593-11.469a.383.383 0 0 1 .333-.266l35.363-2.89a.381.381 0 0 1 .163.737l-38.956 14.36a.391.391 0 0 1-.247.006zm3.994-11.475l-3.285 10.486 35.614-13.128z" class="cls-5"/>
            </g>
            <g id="Grupo_1476">
                <path id="Trazado_5358" d="M352.707 120.662l36.206-3.057-45.253-9.188z" class="cls-2"/>
                <path id="Trazado_5359" d="M352.593 121.026a.377.377 0 0 1-.192-.137l-9.048-12.245a.382.382 0 0 1 .382-.6l45.253 9.188a.381.381 0 0 1-.044.753l-36.2 3.057a.4.4 0 0 1-.151-.016zm-8.039-12.038l8.333 11.277 33.343-2.816z" class="cls-5"/>
            </g>
            <g id="Grupo_1477">
                <path id="Trazado_5360" d="M355.734 124.221l11.609 15.913 21.569-22.529z" class="cls-2"/>
                <path id="Trazado_5361" d="M367.23 140.5a.372.372 0 0 1-.194-.139l-11.61-15.913a.38.38 0 0 1 .234-.6l33.177-6.616a.381.381 0 0 1 .35.637L367.619 140.4a.384.384 0 0 1-.3.117.371.371 0 0 1-.089-.017zm-10.837-16.019l10.99 15.064 20.417-21.33z" class="cls-5"/>
            </g>
            <g id="Grupo_1478">
                <path id="Trazado_5362" d="M355.734 124.221l-6.621 7.911 9.9-3.42z" class="cls-2"/>
                <path id="Trazado_5363" d="M349 132.5a.382.382 0 0 1-.178-.608l6.62-7.911a.38.38 0 0 1 .6.02l3.278 4.491a.38.38 0 0 1-.183.584l-9.9 3.42a.388.388 0 0 1-.237.004zm6.714-7.657l-5.427 6.485 8.115-2.8z" class="cls-5"/>
            </g>
            <path id="Trazado_5364" d="M201.491 181.861a.4.4 0 0 1-.113-.058.38.38 0 0 1-.08-.532c.091-.124.184-.244.276-.363l.188-.246a.381.381 0 0 1 .608.458l-.193.253c-.089.115-.178.231-.266.35a.381.381 0 0 1-.42.138z" class="cls-5"/>
            <path id="Trazado_5365" d="M203.765 178.8a.373.373 0 0 1-.109-.055.38.38 0 0 1-.086-.531q.45-.621.883-1.233a.381.381 0 1 1 .622.439q-.437.616-.888 1.24a.38.38 0 0 1-.422.14zm2.616-3.736a.4.4 0 0 1-.1-.048.381.381 0 0 1-.1-.529q.431-.635.844-1.26a.381.381 0 1 1 .635.42q-.416.63-.848 1.267a.381.381 0 0 1-.431.155zm2.5-3.815a.415.415 0 0 1-.091-.042.381.381 0 0 1-.117-.526q.41-.646.807-1.284a.38.38 0 1 1 .646.4q-.4.641-.81 1.29a.381.381 0 0 1-.436.167zm2.394-3.883a.358.358 0 0 1-.083-.037.381.381 0 0 1-.13-.522q.395-.655.777-1.3a.381.381 0 0 1 .656.387c-.256.435-.516.87-.78 1.309a.379.379 0 0 1-.441.168zm2.314-3.93a.329.329 0 0 1-.077-.034.38.38 0 0 1-.139-.52l.76-1.316a.381.381 0 0 1 .66.38l-.761 1.318a.381.381 0 0 1-.444.177zm2.276-3.952a.4.4 0 0 1-.077-.033.382.382 0 0 1-.14-.52l.762-1.321a.381.381 0 1 1 .659.381l-.76 1.32a.383.383 0 0 1-.445.178zm2.295-3.946a.409.409 0 0 1-.08-.036.38.38 0 0 1-.134-.522q.387-.654.779-1.307a.381.381 0 1 1 .652.393q-.39.649-.776 1.3a.381.381 0 0 1-.442.177zm2.368-3.9a.4.4 0 0 1-.089-.042.381.381 0 0 1-.12-.525q.405-.642.819-1.285a.381.381 0 0 1 .64.412q-.412.639-.814 1.279a.382.382 0 0 1-.437.171zm2.5-3.815a.383.383 0 0 1-.2-.579q.427-.625.871-1.253a.381.381 0 0 1 .622.44q-.439.623-.865 1.243a.381.381 0 0 1-.432.159zm2.663-3.7a.364.364 0 0 1-.116-.059.382.382 0 0 1-.074-.534q.456-.6.931-1.21a.381.381 0 0 1 .6.47q-.471.6-.923 1.2a.382.382 0 0 1-.422.14zm2.84-3.566a.388.388 0 0 1-.13-.072.379.379 0 0 1-.047-.536q.484-.579.99-1.162a.381.381 0 1 1 .575.5q-.5.577-.982 1.152a.383.383 0 0 1-.41.125zm3.015-3.421a.381.381 0 0 1-.166-.622q.513-.555 1.046-1.112a.38.38 0 1 1 .55.525q-.528.555-1.037 1.1a.38.38 0 0 1-.397.116zm3.173-3.275a.374.374 0 0 1-.157-.1.38.38 0 0 1 0-.538q.537-.531 1.1-1.065a.381.381 0 1 1 .526.55q-.552.531-1.086 1.056a.378.378 0 0 1-.387.104zm3.317-3.142a.382.382 0 0 1-.141-.647c.344-.31.727-.65 1.147-1.015a.381.381 0 0 1 .5.575c-.416.362-.8.7-1.137 1.006a.38.38 0 0 1-.373.088zm3.472-2.975a.373.373 0 0 1-.181-.122.381.381 0 0 1 .054-.536q.571-.467 1.192-.958a.381.381 0 1 1 .473.6q-.617.487-1.183.951a.378.378 0 0 1-.363.072zm3.6-2.809a.373.373 0 0 1-.191-.136.38.38 0 0 1 .078-.533q.6-.447 1.234-.9a.381.381 0 0 1 .445.619q-.627.452-1.225.9a.38.38 0 0 1-.341.057zm3.729-2.639a.376.376 0 0 1-.2-.151.38.38 0 0 1 .1-.528q.627-.421 1.277-.842a.381.381 0 0 1 .414.639q-.645.417-1.266.835a.38.38 0 0 1-.325.051zm3.856-2.449a.373.373 0 0 1-.212-.168.38.38 0 0 1 .131-.522q.651-.39 1.32-.773a.381.381 0 1 1 .378.661q-.661.379-1.307.765a.383.383 0 0 1-.31.044zm3.985-2.231a.373.373 0 0 1-.223-.187.381.381 0 0 1 .161-.514q.676-.351 1.365-.692a.381.381 0 0 1 .338.683q-.682.336-1.351.685a.382.382 0 0 1-.29.032zm21.228 4.473a.381.381 0 0 1 .224-.728 6.893 6.893 0 0 0 1.413.271.381.381 0 0 1-.063.759 7.658 7.658 0 0 1-1.569-.3zm-2.68-1.4a.379.379 0 0 1-.122-.065 8.232 8.232 0 0 1-1.15-1.1.381.381 0 1 1 .578-.5 7.565 7.565 0 0 0 1.044 1 .381.381 0 0 1-.35.662zm-14.428-5.04a.38.38 0 0 1-.038-.712q.7-.3 1.409-.594a.381.381 0 1 1 .287.706q-.7.285-1.392.586a.377.377 0 0 1-.264.017zm21.577 6.264a.381.381 0 0 1-.036-.714 5.855 5.855 0 0 0 1.231-.717.381.381 0 0 1 .459.608 6.649 6.649 0 0 1-1.391.81.386.386 0 0 1-.263.016zm-9.644-4.945a.382.382 0 0 1-.257-.277 5.45 5.45 0 0 1-.133-1.624.381.381 0 0 1 .76.054 4.655 4.655 0 0 0 .115 1.4.381.381 0 0 1-.284.458.39.39 0 0 1-.201-.008zm-7.683-2.977a.381.381 0 0 1-.009-.724c.483-.165.97-.324 1.457-.475a.381.381 0 0 1 .226.728q-.721.222-1.437.468a.377.377 0 0 1-.237.006zm20.266 4.684a.383.383 0 0 1-.261-.429 3.64 3.64 0 0 0-.031-1.369.381.381 0 0 1 .746-.154 4.4 4.4 0 0 1 .036 1.654.381.381 0 0 1-.44.31.454.454 0 0 1-.05-.009zm-15.884-5.961a.381.381 0 0 1 .026-.734q.748-.177 1.5-.328a.38.38 0 1 1 .149.746q-.739.148-1.475.323a.373.373 0 0 1-.2-.004zm4.263-.051a.387.387 0 0 1-.114-.059.38.38 0 0 1-.077-.533c.074-.1.152-.2.234-.295a.366.366 0 0 1-.077-.188.38.38 0 0 1 .333-.423l.353-.04c.078-.075.158-.15.241-.223a.379.379 0 0 1 .538.031.386.386 0 0 1 .069.112l.338-.021a.381.381 0 0 1 .041.761q-.387.021-.788.06l-.093.01a6.694 6.694 0 0 0-.579.672.381.381 0 0 1-.419.139zm10.153 1.861a.377.377 0 0 1-.164-.1 7.031 7.031 0 0 0-1.091-.94.381.381 0 0 1 .437-.624 7.716 7.716 0 0 1 1.21 1.044.381.381 0 0 1-.392.623zm-5.375-2.613a.381.381 0 0 1 .174-.74 12.186 12.186 0 0 1 1.531.342h.007a.381.381 0 0 1-.22.729 11.473 11.473 0 0 0-1.437-.32.489.489 0 0 1-.055-.008zm61.9 18.906l-.207-.066a.381.381 0 0 1 .23-.726l.2.064q.625.2 1.241.365a.358.358 0 0 1 .267.468.381.381 0 0 1-.468.266c-.417-.11-.84-.235-1.266-.368zm-3.069-1.089l-.026-.01q-.7-.274-1.418-.577a.381.381 0 1 1 .3-.7q.705.3 1.4.571a.381.381 0 0 1-.252.718zm7.293 2.109a.381.381 0 0 1 .174-.739c.505.081 1 .143 1.483.184a.381.381 0 0 1-.066.759c-.5-.043-1.014-.107-1.537-.191a.3.3 0 0 1-.057-.01zm-11.482-3.926a.4.4 0 0 1-.048-.018q-.686-.323-1.378-.662a.381.381 0 0 1 .335-.684q.687.336 1.366.656a.381.381 0 0 1-.275.708zm-55.851-18.029a.382.382 0 0 1-.057-.705c.446-.222.923-.435 1.42-.632a.381.381 0 0 1 .281.709c-.476.188-.934.392-1.359.6a.384.384 0 0 1-.288.031zm51.762 16a.42.42 0 0 1-.063-.026c-.447-.233-.9-.47-1.349-.711a.38.38 0 1 1 .357-.672q.675.358 1.344.707a.381.381 0 0 1-.289.7zM325 123.723a.328.328 0 0 1-.07-.03l-1.334-.738a.38.38 0 0 1-.147-.518.384.384 0 0 1 .518-.147l1.33.736a.381.381 0 0 1-.3.7zm-3.989-2.226a.361.361 0 0 1-.073-.032l-1.329-.751a.381.381 0 1 1 .374-.663l1.329.751a.381.381 0 0 1-.3.695zm-39.466-13.163a.381.381 0 0 1 .018-.732q.715-.186 1.5-.351a.381.381 0 1 1 .158.745q-.765.162-1.464.343a.371.371 0 0 1-.215-.005zm35.487 10.915a.361.361 0 0 1-.073-.032l-1.327-.746a.381.381 0 0 1 .372-.664l1.328.746a.381.381 0 0 1-.3.7zm-3.988-2.224a.361.361 0 0 1-.07-.03q-.668-.366-1.333-.727a.381.381 0 1 1 .359-.668c.445.24.891.484 1.336.728a.381.381 0 0 1-.3.7zm-4.021-2.157a.38.38 0 0 1-.063-.026q-.676-.353-1.35-.7a.381.381 0 0 1-.167-.512.389.389 0 0 1 .512-.167q.678.345 1.357.7a.381.381 0 0 1-.289.7zm-22.98-7.246a.381.381 0 0 1 .1-.745c.5-.019 1.024-.02 1.548 0a.381.381 0 0 1-.025.762c-.506-.017-1.008-.016-1.494 0a.412.412 0 0 1-.132-.017zm18.9 5.2a.386.386 0 0 1-.051-.02q-.69-.33-1.374-.643a.381.381 0 0 1-.187-.505.385.385 0 0 1 .505-.187q.688.316 1.383.647a.381.381 0 0 1-.276.708zm-14.349-4.914a.381.381 0 0 1 .172-.74c.5.077 1.007.169 1.516.273a.381.381 0 0 1-.153.746q-.744-.152-1.479-.266a.35.35 0 0 1-.063-.012zm10.182 3.049l-.033-.012q-.705-.292-1.4-.564a.382.382 0 0 1-.218-.493.376.376 0 0 1 .493-.218q.708.276 1.421.571a.381.381 0 0 1-.259.716zm-5.732-2.044a.381.381 0 0 1 .22-.729c.485.141.976.292 1.467.453a.381.381 0 0 1-.233.725h-.005c-.482-.158-.964-.306-1.442-.446z" class="cls-5"/>
            <path id="Trazado_5366" d="M349.2 132.022a.381.381 0 0 1 .078-.742c.246-.023.488-.056.732-.1a.381.381 0 0 1 .122.752c-.261.042-.519.076-.783.1a.37.37 0 0 1-.149-.01z" class="cls-5"/>
        </g>
        <g id="Grupo_1481">
            <g id="Grupo_1479">
                <circle id="Elipse_659" cx="24.392" cy="24.392" r="24.392" fill="url(#linear-gradient)" stroke="#333232" stroke-miterlimit="10" transform="rotate(-74.518 204.733 -51.788)"/>
                <circle id="Elipse_660" cx="21.667" cy="21.667" r="21.667" fill="url(#linear-gradient-2)" transform="rotate(-71.062 210.333 -63.869)"/>
            </g>
            <g id="Grupo_1480">
                <path id="Trazado_5367" d="M234.821 149.384a6.085 6.085 0 0 0 2.352-2.525h5.536a10.8 10.8 0 0 1-4.238 5.76 13.093 13.093 0 0 1-14.357-.173 11.471 11.471 0 0 1-4.342-5.968h-2.941v-2.871h2.387q-.069-.831-.069-1.246c0-.322.023-.761.069-1.314h-2.387v-2.872h2.975a11.38 11.38 0 0 1 4.342-5.95 13.034 13.034 0 0 1 14.323-.139 10.892 10.892 0 0 1 4.238 5.743h-5.536a5.98 5.98 0 0 0-2.352-2.508 6.869 6.869 0 0 0-3.46-.847 7.255 7.255 0 0 0-3.753.968 6.544 6.544 0 0 0-2.543 2.733h6.642v2.872H224.2c-.046.553-.069.992-.069 1.314q0 .416.069 1.246h7.507v2.871h-6.677a6.748 6.748 0 0 0 2.56 2.768 7.146 7.146 0 0 0 3.771 1 6.756 6.756 0 0 0 3.46-.862z" class="cls-4"/>
            </g>
        </g>
        <path id="Trazado_5368" d="M300.341 215.213v28.35a4.911 4.911 0 0 1-4.911 4.911h-1.825v10.1h-2.173l-9.054-10.1h-28.771a4.911 4.911 0 0 1-4.911-4.911v-28.35a4.912 4.912 0 0 1 4.911-4.912h41.823a4.912 4.912 0 0 1 4.911 4.912z" class="cls-16"/>
        <path id="Trazado_5369" d="M224 190.513v28.35a4.911 4.911 0 0 0 4.911 4.911h1.826v10.1h2.173l9.054-10.1h28.77a4.911 4.911 0 0 0 4.911-4.911v-28.35a4.91 4.91 0 0 0-4.911-4.911h-41.827a4.911 4.911 0 0 0-4.907 4.911z" class="cls-16"/>
        <path id="Línea_4" d="M0 0L35.927 0" class="cls-17" transform="translate(256.555 237.247)"/>
        <path id="Línea_5" d="M0 0L35.927 0" class="cls-17" transform="translate(256.555 230.51)"/>
        <path id="Línea_6" d="M0 0L35.927 0" class="cls-17" transform="translate(256.555 223.774)"/>
        <g id="Grupo_1482">
            <path id="Trazado_5370" d="M244.333 203.666l3.942 3.942 7.778-7.778" class="cls-17"/>
            <circle id="Elipse_661" cx="11.601" cy="11.601" r="11.601" class="cls-17" transform="translate(238.592 192.338)"/>
        </g>
    </g>
</svg>
